<svg width="20.000000" height="20.000000" viewBox="0 0 20 20" fill="none" xmlns="http://www.w3.org/2000/svg" xmlns:xlink="http://www.w3.org/1999/xlink">
	<desc>
			Created with Pixso.
	</desc>
	<defs>
		<clipPath id="clip306_645">
			<rect id="Icon" rx="0.000000" width="19.000000" height="19.000000" transform="translate(0.500000 0.500000)" fill="white" fill-opacity="0"/>
		</clipPath>
	</defs>
	<g clip-path="url(#clip306_645)">
		<path id="Vector 431 (Stroke)" d="M6.87 3.12L16.25 3.12C16.41 3.12 16.57 3.19 16.69 3.3C16.8 3.42 16.87 3.58 16.87 3.75L16.87 13.12C16.87 13.47 16.59 13.75 16.25 13.75C15.9 13.75 15.62 13.47 15.62 13.12L15.62 5.25L4.19 16.69C3.94 16.93 3.55 16.93 3.3 16.69C3.06 16.44 3.06 16.05 3.3 15.8L14.74 4.37L6.87 4.37C6.53 4.37 6.25 4.09 6.25 3.75C6.25 3.4 6.53 3.12 6.87 3.12Z" fill="#FFD11A" fill-opacity="1.000000" fill-rule="evenodd"/>
	</g>
</svg>
